<svg xmlns="http://www.w3.org/2000/svg" viewBox="0 0 1800 600" width="100%" height="100%" preserveAspectRatio="xMidYMid slice">
<defs>
<filter id="grain" x="0" y="0" width="100%" height="100%">
<feTurbulence type="fractalNoise" baseFrequency="0.9" numOctaves="4" stitchTiles="stitch"/>
<feColorMatrix type="saturate" values="0"/>
</filter>
<filter id="b60"><feGaussianBlur stdDeviation="60"/></filter>
<filter id="b28"><feGaussianBlur stdDeviation="28"/></filter>
<filter id="b10"><feGaussianBlur stdDeviation="10"/></filter>
<filter id="b3"><feGaussianBlur stdDeviation="3"/></filter></defs>
<defs>
<linearGradient id="base614" x1="0" y1="0" x2="0.7" y2="1">
<stop offset="0%" stop-color="#ecdba5" stop-opacity="0.9"/>
<stop offset="45%" stop-color="#d4af37"/>
<stop offset="100%" stop-color="#433e1e"/>
</linearGradient>
<radialGradient id="vig614" cx="0.5" cy="0.44" r="0.8">
<stop offset="52%" stop-color="#000000" stop-opacity="0"/>
<stop offset="100%" stop-color="#000000" stop-opacity="0.5"/>
</radialGradient>
</defs>
<rect width="1800" height="600" fill="url(#base614)"/>
<g filter="url(#b60)"><ellipse cx="853" cy="582" rx="465" ry="466" fill="#d4af37" opacity="0.53"/><ellipse cx="1289" cy="0" rx="421" ry="716" fill="#ecdba5" opacity="0.64"/><ellipse cx="692" cy="127" rx="573" ry="415" fill="#433e1e" opacity="0.36"/><ellipse cx="1255" cy="447" rx="719" ry="638" fill="#ffe0b8" opacity="0.33"/><ellipse cx="1534" cy="71" rx="889" ry="401" fill="#d4af37" opacity="0.32"/><ellipse cx="967" cy="582" rx="689" ry="632" fill="#ecdba5" opacity="0.35"/><ellipse cx="237" cy="160" rx="841" ry="631" fill="#433e1e" opacity="0.69"/><ellipse cx="348" cy="328" rx="863" ry="588" fill="#ffe0b8" opacity="0.50"/></g>
<g filter="url(#b28)"><circle cx="988" cy="538" r="122" fill="none" stroke="#ffffff" stroke-width="26.9" opacity="0.27"/><circle cx="1669" cy="134" r="123" fill="#ecdba5" opacity="0.27"/><circle cx="105" cy="20" r="231" fill="none" stroke="#ecdba5" stroke-width="50.8" opacity="0.22"/><circle cx="1597" cy="527" r="166" fill="#d4af37" opacity="0.26"/><circle cx="1090" cy="83" r="176" fill="#ecdba5" opacity="0.11"/><circle cx="1456" cy="156" r="207" fill="#ffe0b8" opacity="0.22"/><circle cx="541" cy="477" r="228" fill="none" stroke="#ecdba5" stroke-width="50.1" opacity="0.23"/><circle cx="951" cy="75" r="152" fill="none" stroke="#d4af37" stroke-width="33.5" opacity="0.24"/><circle cx="1692" cy="155" r="178" fill="#ecdba5" opacity="0.12"/><circle cx="606" cy="389" r="117" fill="#d4af37" opacity="0.25"/></g>
<g filter="url(#b10)"><circle cx="583" cy="586" r="105" fill="#ffe0b8" opacity="0.19"/><circle cx="1080" cy="371" r="53" fill="#ffe0b8" opacity="0.15"/><circle cx="1547" cy="194" r="66" fill="none" stroke="#d4af37" stroke-width="14.5" opacity="0.38"/><circle cx="1453" cy="454" r="123" fill="none" stroke="#ecdba5" stroke-width="27.0" opacity="0.35"/><circle cx="106" cy="292" r="56" fill="none" stroke="#d4af37" stroke-width="12.4" opacity="0.32"/><circle cx="1433" cy="457" r="85" fill="none" stroke="#ecdba5" stroke-width="18.8" opacity="0.19"/><circle cx="1424" cy="391" r="59" fill="none" stroke="#ffe0b8" stroke-width="13.0" opacity="0.16"/><circle cx="223" cy="493" r="124" fill="#ffffff" opacity="0.33"/><circle cx="718" cy="566" r="99" fill="#ecdba5" opacity="0.24"/><circle cx="1497" cy="414" r="37" fill="none" stroke="#ffe0b8" stroke-width="8.2" opacity="0.39"/><circle cx="76" cy="447" r="41" fill="#ffffff" opacity="0.28"/><circle cx="139" cy="347" r="100" fill="none" stroke="#d4af37" stroke-width="21.9" opacity="0.25"/><circle cx="1562" cy="228" r="115" fill="none" stroke="#ffe0b8" stroke-width="25.3" opacity="0.39"/></g>
<g filter="url(#b3)"><circle cx="679" cy="268" r="23" fill="#ecdba5" opacity="0.58"/><circle cx="1582" cy="163" r="13" fill="#ecdba5" opacity="0.63"/><circle cx="787" cy="276" r="21" fill="#ffffff" opacity="0.38"/><circle cx="1082" cy="15" r="14" fill="none" stroke="#ffe0b8" stroke-width="3.0" opacity="0.65"/><circle cx="1456" cy="417" r="20" fill="#d4af37" opacity="0.49"/><circle cx="1644" cy="75" r="35" fill="none" stroke="#ecdba5" stroke-width="7.8" opacity="0.53"/><circle cx="1541" cy="207" r="39" fill="none" stroke="#ffe0b8" stroke-width="8.5" opacity="0.38"/><circle cx="1159" cy="74" r="24" fill="none" stroke="#ecdba5" stroke-width="5.4" opacity="0.61"/><circle cx="1379" cy="10" r="18" fill="#d4af37" opacity="0.58"/><circle cx="1449" cy="322" r="15" fill="none" stroke="#ecdba5" stroke-width="3.2" opacity="0.36"/></g>
<path d="M-180 540 L648 -60 L1116 -60 L288 660 Z" fill="#ffe0b8" opacity="0.15" filter="url(#b28)"/>
<g><ellipse cx="854" cy="118" rx="756" ry="612" fill="#ffe0b8" opacity="0.26" filter="url(#b60)"/><circle cx="854" cy="118" r="90" fill="#ffffff" opacity="0.5" filter="url(#b10)"/><circle cx="875" cy="201" r="58" fill="none" stroke="#ecdba5" stroke-width="10.8" opacity="0.15" filter="url(#b3)"/><circle cx="896" cy="283" r="79" fill="none" stroke="#ecdba5" stroke-width="10.8" opacity="0.12" filter="url(#b3)"/><circle cx="917" cy="366" r="101" fill="none" stroke="#ecdba5" stroke-width="10.8" opacity="0.09" filter="url(#b3)"/><circle cx="938" cy="449" r="122" fill="none" stroke="#ecdba5" stroke-width="10.8" opacity="0.06" filter="url(#b3)"/></g>
<rect width="1800" height="600" fill="url(#vig614)"/>
<rect width="1800" height="600" filter="url(#grain)" opacity="0.06" style="mix-blend-mode:overlay"/>
</svg>