<svg xmlns="http://www.w3.org/2000/svg" viewBox="0 0 1800 600" width="100%" height="100%" preserveAspectRatio="xMidYMid slice">
<defs>
<filter id="grain" x="0" y="0" width="100%" height="100%">
<feTurbulence type="fractalNoise" baseFrequency="0.9" numOctaves="4" stitchTiles="stitch"/>
<feColorMatrix type="saturate" values="0"/>
</filter>
<filter id="b60"><feGaussianBlur stdDeviation="60"/></filter>
<filter id="b28"><feGaussianBlur stdDeviation="28"/></filter>
<filter id="b10"><feGaussianBlur stdDeviation="10"/></filter>
<filter id="b3"><feGaussianBlur stdDeviation="3"/></filter></defs>
<defs>
<linearGradient id="base768" x1="0" y1="0" x2="0.7" y2="1">
<stop offset="0%" stop-color="#8dc8e6" stop-opacity="0.9"/>
<stop offset="45%" stop-color="#0284c7"/>
<stop offset="100%" stop-color="#083246"/>
</linearGradient>
<radialGradient id="vig768" cx="0.5" cy="0.44" r="0.8">
<stop offset="52%" stop-color="#000000" stop-opacity="0"/>
<stop offset="100%" stop-color="#000000" stop-opacity="0.5"/>
</radialGradient>
</defs>
<rect width="1800" height="600" fill="url(#base768)"/>
<g filter="url(#b60)"><ellipse cx="961" cy="563" rx="737" ry="304" fill="#0284c7" opacity="0.38"/><ellipse cx="1555" cy="228" rx="474" ry="361" fill="#8dc8e6" opacity="0.57"/><ellipse cx="464" cy="404" rx="840" ry="728" fill="#083246" opacity="0.43"/><ellipse cx="857" cy="198" rx="927" ry="628" fill="#ffe0b8" opacity="0.57"/><ellipse cx="503" cy="477" rx="409" ry="425" fill="#0284c7" opacity="0.35"/><ellipse cx="1037" cy="160" rx="768" ry="479" fill="#8dc8e6" opacity="0.38"/><ellipse cx="1121" cy="94" rx="443" ry="299" fill="#083246" opacity="0.35"/><ellipse cx="534" cy="275" rx="611" ry="783" fill="#ffe0b8" opacity="0.32"/></g>
<g filter="url(#b28)"><circle cx="469" cy="541" r="154" fill="#ffe0b8" opacity="0.30"/><circle cx="822" cy="504" r="100" fill="none" stroke="#ffffff" stroke-width="22.0" opacity="0.23"/><circle cx="674" cy="402" r="246" fill="none" stroke="#8dc8e6" stroke-width="54.0" opacity="0.23"/><circle cx="1667" cy="487" r="101" fill="none" stroke="#0284c7" stroke-width="22.2" opacity="0.25"/><circle cx="1659" cy="153" r="160" fill="#ffe0b8" opacity="0.29"/><circle cx="484" cy="54" r="254" fill="#ffffff" opacity="0.15"/><circle cx="1458" cy="94" r="267" fill="#8dc8e6" opacity="0.11"/><circle cx="855" cy="143" r="156" fill="none" stroke="#ffe0b8" stroke-width="34.4" opacity="0.12"/><circle cx="1300" cy="312" r="236" fill="none" stroke="#ffffff" stroke-width="51.9" opacity="0.19"/><circle cx="1213" cy="52" r="111" fill="#ffffff" opacity="0.25"/></g>
<g filter="url(#b10)"><circle cx="435" cy="273" r="38" fill="#8dc8e6" opacity="0.37"/><circle cx="1295" cy="482" r="89" fill="#ffe0b8" opacity="0.31"/><circle cx="101" cy="503" r="81" fill="none" stroke="#0284c7" stroke-width="17.7" opacity="0.28"/><circle cx="352" cy="492" r="105" fill="none" stroke="#ffe0b8" stroke-width="23.0" opacity="0.40"/><circle cx="1299" cy="537" r="109" fill="#8dc8e6" opacity="0.25"/><circle cx="783" cy="309" r="37" fill="#ffffff" opacity="0.29"/><circle cx="1296" cy="53" r="43" fill="#8dc8e6" opacity="0.14"/><circle cx="759" cy="498" r="61" fill="#0284c7" opacity="0.25"/><circle cx="1428" cy="89" r="98" fill="none" stroke="#ffffff" stroke-width="21.7" opacity="0.33"/><circle cx="1224" cy="157" r="51" fill="none" stroke="#0284c7" stroke-width="11.2" opacity="0.27"/><circle cx="1425" cy="145" r="124" fill="#ffffff" opacity="0.25"/><circle cx="929" cy="522" r="94" fill="#ffffff" opacity="0.26"/><circle cx="935" cy="371" r="64" fill="#ffe0b8" opacity="0.15"/></g>
<g filter="url(#b3)"><circle cx="383" cy="155" r="27" fill="#0284c7" opacity="0.28"/><circle cx="561" cy="161" r="22" fill="#ffffff" opacity="0.39"/><circle cx="82" cy="394" r="14" fill="none" stroke="#0284c7" stroke-width="3.1" opacity="0.48"/><circle cx="585" cy="225" r="23" fill="#ffe0b8" opacity="0.40"/><circle cx="404" cy="345" r="38" fill="#ffffff" opacity="0.63"/><circle cx="1408" cy="374" r="25" fill="#0284c7" opacity="0.42"/><circle cx="216" cy="399" r="27" fill="none" stroke="#8dc8e6" stroke-width="6.0" opacity="0.26"/><circle cx="1169" cy="398" r="32" fill="none" stroke="#8dc8e6" stroke-width="7.1" opacity="0.58"/><circle cx="695" cy="432" r="16" fill="#ffffff" opacity="0.53"/><circle cx="864" cy="161" r="27" fill="#0284c7" opacity="0.57"/></g>
<path d="M-180 540 L648 -60 L1116 -60 L288 660 Z" fill="#ffe0b8" opacity="0.15" filter="url(#b28)"/>
<g><ellipse cx="749" cy="118" rx="756" ry="612" fill="#ffe0b8" opacity="0.26" filter="url(#b60)"/><circle cx="749" cy="118" r="90" fill="#ffffff" opacity="0.5" filter="url(#b10)"/><circle cx="817" cy="201" r="58" fill="none" stroke="#8dc8e6" stroke-width="10.8" opacity="0.15" filter="url(#b3)"/><circle cx="886" cy="283" r="79" fill="none" stroke="#8dc8e6" stroke-width="10.8" opacity="0.12" filter="url(#b3)"/><circle cx="955" cy="366" r="101" fill="none" stroke="#8dc8e6" stroke-width="10.8" opacity="0.09" filter="url(#b3)"/><circle cx="1024" cy="449" r="122" fill="none" stroke="#8dc8e6" stroke-width="10.8" opacity="0.06" filter="url(#b3)"/></g>
<rect width="1800" height="600" fill="url(#vig768)"/>
<rect width="1800" height="600" filter="url(#grain)" opacity="0.06" style="mix-blend-mode:overlay"/>
</svg>