<svg xmlns="http://www.w3.org/2000/svg" viewBox="0 0 1200 900" width="1200" height="900">
<defs>
<filter id="grain" x="0" y="0" width="100%" height="100%">
<feTurbulence type="fractalNoise" baseFrequency="0.9" numOctaves="4" stitchTiles="stitch"/>
<feColorMatrix type="saturate" values="0"/>
</filter>
<filter id="b60"><feGaussianBlur stdDeviation="60"/></filter>
<filter id="b28"><feGaussianBlur stdDeviation="28"/></filter>
<filter id="b10"><feGaussianBlur stdDeviation="10"/></filter>
<filter id="b3"><feGaussianBlur stdDeviation="3"/></filter></defs>
<defs>
<linearGradient id="base229" x1="0" y1="0" x2="0.7" y2="1">
<stop offset="0%" stop-color="#ffb08a" stop-opacity="0.9"/>
<stop offset="45%" stop-color="#e0532f"/>
<stop offset="100%" stop-color="#25100a"/>
</linearGradient>
<radialGradient id="vig229" cx="0.5" cy="0.44" r="0.8">
<stop offset="52%" stop-color="#000000" stop-opacity="0"/>
<stop offset="100%" stop-color="#000000" stop-opacity="0.5"/>
</radialGradient>
</defs>
<rect width="1200" height="900" fill="url(#base229)"/>
<g filter="url(#b60)"><ellipse cx="390" cy="45" rx="468" ry="220" fill="#e0532f" opacity="0.28"/><ellipse cx="1017" cy="46" rx="395" ry="169" fill="#ffb08a" opacity="0.59"/><ellipse cx="840" cy="504" rx="345" ry="474" fill="#25100a" opacity="0.40"/><ellipse cx="301" cy="702" rx="539" ry="442" fill="#ffd9a0" opacity="0.58"/><ellipse cx="941" cy="387" rx="577" ry="409" fill="#e0532f" opacity="0.66"/><ellipse cx="528" cy="206" rx="327" ry="495" fill="#ffb08a" opacity="0.49"/><ellipse cx="1085" cy="491" rx="612" ry="255" fill="#25100a" opacity="0.70"/></g>
<g filter="url(#b28)"><circle cx="865" cy="106" r="109" fill="none" stroke="#e0532f" stroke-width="24.0" opacity="0.26"/><circle cx="459" cy="864" r="92" fill="#ffb08a" opacity="0.17"/><circle cx="216" cy="54" r="132" fill="none" stroke="#ffd9a0" stroke-width="29.1" opacity="0.19"/><circle cx="531" cy="685" r="152" fill="#ffb08a" opacity="0.15"/><circle cx="57" cy="26" r="155" fill="none" stroke="#e0532f" stroke-width="34.1" opacity="0.10"/><circle cx="420" cy="672" r="98" fill="#ffd9a0" opacity="0.27"/><circle cx="221" cy="500" r="139" fill="none" stroke="#ffd9a0" stroke-width="30.6" opacity="0.13"/><circle cx="470" cy="530" r="123" fill="#ffb08a" opacity="0.19"/><circle cx="405" cy="267" r="79" fill="none" stroke="#ffb08a" stroke-width="17.4" opacity="0.18"/></g>
<g filter="url(#b10)"><circle cx="126" cy="717" r="83" fill="#ffffff" opacity="0.35"/><circle cx="668" cy="279" r="54" fill="none" stroke="#ffffff" stroke-width="11.8" opacity="0.20"/><circle cx="335" cy="372" r="56" fill="#e0532f" opacity="0.17"/><circle cx="789" cy="451" r="42" fill="#ffb08a" opacity="0.14"/><circle cx="43" cy="178" r="46" fill="#ffd9a0" opacity="0.35"/><circle cx="118" cy="829" r="74" fill="none" stroke="#e0532f" stroke-width="16.3" opacity="0.39"/><circle cx="558" cy="516" r="48" fill="none" stroke="#ffd9a0" stroke-width="10.6" opacity="0.22"/><circle cx="1050" cy="740" r="36" fill="#ffd9a0" opacity="0.26"/><circle cx="673" cy="813" r="52" fill="none" stroke="#e0532f" stroke-width="11.5" opacity="0.16"/><circle cx="359" cy="591" r="77" fill="#ffffff" opacity="0.19"/><circle cx="513" cy="792" r="49" fill="none" stroke="#ffffff" stroke-width="10.7" opacity="0.22"/></g>
<g filter="url(#b3)"><circle cx="914" cy="394" r="11" fill="none" stroke="#ffffff" stroke-width="2.5" opacity="0.61"/><circle cx="5" cy="75" r="10" fill="none" stroke="#ffd9a0" stroke-width="2.3" opacity="0.63"/><circle cx="1020" cy="114" r="16" fill="none" stroke="#ffd9a0" stroke-width="3.6" opacity="0.61"/><circle cx="944" cy="897" r="12" fill="none" stroke="#ffd9a0" stroke-width="2.6" opacity="0.48"/><circle cx="499" cy="884" r="22" fill="none" stroke="#ffb08a" stroke-width="4.9" opacity="0.48"/><circle cx="332" cy="32" r="13" fill="#e0532f" opacity="0.53"/><circle cx="564" cy="25" r="25" fill="#ffb08a" opacity="0.36"/><circle cx="182" cy="342" r="22" fill="none" stroke="#ffb08a" stroke-width="4.9" opacity="0.42"/><circle cx="1194" cy="63" r="22" fill="none" stroke="#ffb08a" stroke-width="4.8" opacity="0.62"/></g>
<path d="M-120 810 L432 -90 L744 -90 L192 990 Z" fill="#ffd9a0" opacity="0.15" filter="url(#b28)"/>
<g><ellipse cx="553" cy="273" rx="504" ry="408" fill="#ffd9a0" opacity="0.26" filter="url(#b60)"/><circle cx="553" cy="273" r="60" fill="#ffffff" opacity="0.5" filter="url(#b10)"/><circle cx="574" cy="354" r="38" fill="none" stroke="#ffb08a" stroke-width="7.2" opacity="0.15" filter="url(#b3)"/><circle cx="596" cy="434" r="53" fill="none" stroke="#ffb08a" stroke-width="7.2" opacity="0.12" filter="url(#b3)"/><circle cx="617" cy="514" r="67" fill="none" stroke="#ffb08a" stroke-width="7.2" opacity="0.09" filter="url(#b3)"/><circle cx="639" cy="595" r="82" fill="none" stroke="#ffb08a" stroke-width="7.2" opacity="0.06" filter="url(#b3)"/></g>
<rect width="1200" height="900" fill="url(#vig229)"/>
<g transform="translate(600 450) scale(6.12)" fill="none" stroke="#000000" stroke-width="3.2" stroke-linecap="round" stroke-linejoin="round" opacity="0.14">
<path d="M-48 0 L-22 0 L-10 -30 L4 30 L16 0 L48 0"/>
</g>
<g transform="translate(600 450) scale(6.00)" fill="none" stroke="#ffffff" stroke-width="3.2" stroke-linecap="round" stroke-linejoin="round" opacity="0.9">
<path d="M-48 0 L-22 0 L-10 -30 L4 30 L16 0 L48 0"/>
</g>
<rect width="1200" height="900" filter="url(#grain)" opacity="0.06" style="mix-blend-mode:overlay"/>
</svg>