<svg xmlns="http://www.w3.org/2000/svg" viewBox="0 0 1800 600" width="100%" height="100%" preserveAspectRatio="xMidYMid slice">
<defs>
<filter id="grain" x="0" y="0" width="100%" height="100%">
<feTurbulence type="fractalNoise" baseFrequency="0.9" numOctaves="4" stitchTiles="stitch"/>
<feColorMatrix type="saturate" values="0"/>
</filter>
<filter id="b60"><feGaussianBlur stdDeviation="60"/></filter>
<filter id="b28"><feGaussianBlur stdDeviation="28"/></filter>
<filter id="b10"><feGaussianBlur stdDeviation="10"/></filter>
<filter id="b3"><feGaussianBlur stdDeviation="3"/></filter></defs>
<defs>
<linearGradient id="base71" x1="0" y1="0" x2="0.7" y2="1">
<stop offset="0%" stop-color="#7fd9cc" stop-opacity="0.9"/>
<stop offset="45%" stop-color="#0d9488"/>
<stop offset="100%" stop-color="#03231f"/>
</linearGradient>
<radialGradient id="vig71" cx="0.5" cy="0.44" r="0.8">
<stop offset="52%" stop-color="#000000" stop-opacity="0"/>
<stop offset="100%" stop-color="#000000" stop-opacity="0.5"/>
</radialGradient>
</defs>
<rect width="1800" height="600" fill="url(#base71)"/>
<g filter="url(#b60)"><ellipse cx="474" cy="431" rx="589" ry="412" fill="#0d9488" opacity="0.58"/><ellipse cx="1277" cy="568" rx="744" ry="590" fill="#7fd9cc" opacity="0.56"/><ellipse cx="20" cy="216" rx="918" ry="503" fill="#03231f" opacity="0.37"/><ellipse cx="1094" cy="349" rx="563" ry="567" fill="#ffe6b8" opacity="0.53"/><ellipse cx="1066" cy="302" rx="928" ry="435" fill="#0d9488" opacity="0.43"/><ellipse cx="1141" cy="321" rx="370" ry="766" fill="#7fd9cc" opacity="0.68"/><ellipse cx="113" cy="22" rx="793" ry="485" fill="#03231f" opacity="0.37"/><ellipse cx="253" cy="256" rx="651" ry="666" fill="#ffe6b8" opacity="0.69"/></g>
<g filter="url(#b28)"><circle cx="598" cy="577" r="149" fill="#7fd9cc" opacity="0.16"/><circle cx="1184" cy="476" r="170" fill="none" stroke="#7fd9cc" stroke-width="37.3" opacity="0.20"/><circle cx="1451" cy="568" r="148" fill="#ffffff" opacity="0.25"/><circle cx="930" cy="70" r="108" fill="#ffe6b8" opacity="0.20"/><circle cx="150" cy="85" r="248" fill="#0d9488" opacity="0.24"/><circle cx="968" cy="176" r="150" fill="#7fd9cc" opacity="0.30"/><circle cx="1270" cy="589" r="172" fill="#7fd9cc" opacity="0.17"/><circle cx="807" cy="108" r="217" fill="none" stroke="#0d9488" stroke-width="47.7" opacity="0.15"/><circle cx="44" cy="331" r="101" fill="#7fd9cc" opacity="0.13"/><circle cx="1460" cy="439" r="223" fill="#ffffff" opacity="0.14"/></g>
<g filter="url(#b10)"><circle cx="1220" cy="200" r="104" fill="#7fd9cc" opacity="0.37"/><circle cx="1162" cy="188" r="115" fill="none" stroke="#ffffff" stroke-width="25.4" opacity="0.24"/><circle cx="370" cy="133" r="86" fill="none" stroke="#0d9488" stroke-width="18.9" opacity="0.21"/><circle cx="531" cy="472" r="115" fill="#ffffff" opacity="0.14"/><circle cx="1065" cy="67" r="94" fill="none" stroke="#7fd9cc" stroke-width="20.7" opacity="0.30"/><circle cx="1748" cy="505" r="98" fill="#0d9488" opacity="0.29"/><circle cx="1417" cy="426" r="52" fill="none" stroke="#7fd9cc" stroke-width="11.5" opacity="0.33"/><circle cx="1149" cy="182" r="68" fill="#7fd9cc" opacity="0.32"/><circle cx="904" cy="246" r="48" fill="none" stroke="#ffffff" stroke-width="10.5" opacity="0.21"/><circle cx="307" cy="246" r="69" fill="none" stroke="#0d9488" stroke-width="15.1" opacity="0.34"/><circle cx="1490" cy="204" r="121" fill="#ffffff" opacity="0.31"/><circle cx="1692" cy="174" r="70" fill="#7fd9cc" opacity="0.33"/><circle cx="838" cy="567" r="123" fill="none" stroke="#ffe6b8" stroke-width="27.1" opacity="0.16"/></g>
<g filter="url(#b3)"><circle cx="486" cy="77" r="25" fill="#ffffff" opacity="0.41"/><circle cx="1139" cy="440" r="37" fill="none" stroke="#ffffff" stroke-width="8.1" opacity="0.48"/><circle cx="759" cy="442" r="19" fill="none" stroke="#7fd9cc" stroke-width="4.1" opacity="0.51"/><circle cx="1656" cy="0" r="32" fill="none" stroke="#ffe6b8" stroke-width="7.0" opacity="0.43"/><circle cx="55" cy="328" r="21" fill="#7fd9cc" opacity="0.55"/><circle cx="1199" cy="411" r="36" fill="none" stroke="#ffffff" stroke-width="8.0" opacity="0.44"/><circle cx="311" cy="136" r="19" fill="#0d9488" opacity="0.42"/><circle cx="1137" cy="418" r="29" fill="none" stroke="#ffe6b8" stroke-width="6.3" opacity="0.48"/><circle cx="855" cy="256" r="33" fill="#7fd9cc" opacity="0.51"/><circle cx="49" cy="191" r="37" fill="#0d9488" opacity="0.39"/></g>
<path d="M-180 540 L648 -60 L1116 -60 L288 660 Z" fill="#ffe6b8" opacity="0.15" filter="url(#b28)"/>
<g><ellipse cx="450" cy="108" rx="756" ry="612" fill="#ffe6b8" opacity="0.26" filter="url(#b60)"/><circle cx="450" cy="108" r="90" fill="#ffffff" opacity="0.5" filter="url(#b10)"/><circle cx="654" cy="195" r="58" fill="none" stroke="#7fd9cc" stroke-width="10.8" opacity="0.15" filter="url(#b3)"/><circle cx="859" cy="283" r="79" fill="none" stroke="#7fd9cc" stroke-width="10.8" opacity="0.12" filter="url(#b3)"/><circle cx="1064" cy="370" r="101" fill="none" stroke="#7fd9cc" stroke-width="10.8" opacity="0.09" filter="url(#b3)"/><circle cx="1268" cy="457" r="122" fill="none" stroke="#7fd9cc" stroke-width="10.8" opacity="0.06" filter="url(#b3)"/></g>
<rect width="1800" height="600" fill="url(#vig71)"/>
<rect width="1800" height="600" filter="url(#grain)" opacity="0.06" style="mix-blend-mode:overlay"/>
</svg>