<svg xmlns="http://www.w3.org/2000/svg" viewBox="0 0 1200 900" width="1200" height="900">
<defs>
<filter id="grain" x="0" y="0" width="100%" height="100%">
<feTurbulence type="fractalNoise" baseFrequency="0.9" numOctaves="4" stitchTiles="stitch"/>
<feColorMatrix type="saturate" values="0"/>
</filter>
<filter id="b60"><feGaussianBlur stdDeviation="60"/></filter>
<filter id="b28"><feGaussianBlur stdDeviation="28"/></filter>
<filter id="b10"><feGaussianBlur stdDeviation="10"/></filter>
<filter id="b3"><feGaussianBlur stdDeviation="3"/></filter></defs>
<defs>
<linearGradient id="base109" x1="0" y1="0" x2="0.7" y2="1">
<stop offset="0%" stop-color="#7fe6e0" stop-opacity="0.9"/>
<stop offset="45%" stop-color="#0e9e90"/>
<stop offset="100%" stop-color="#04262c"/>
</linearGradient>
<radialGradient id="vig109" cx="0.5" cy="0.44" r="0.8">
<stop offset="52%" stop-color="#000000" stop-opacity="0"/>
<stop offset="100%" stop-color="#000000" stop-opacity="0.5"/>
</radialGradient>
</defs>
<rect width="1200" height="900" fill="url(#base109)"/>
<g filter="url(#b60)"><ellipse cx="334" cy="149" rx="401" ry="421" fill="#0e9e90" opacity="0.29"/><ellipse cx="147" cy="294" rx="420" ry="513" fill="#7fe6e0" opacity="0.63"/><ellipse cx="303" cy="344" rx="253" ry="396" fill="#04262c" opacity="0.66"/><ellipse cx="383" cy="361" rx="611" ry="503" fill="#ffd9a0" opacity="0.41"/><ellipse cx="1024" cy="801" rx="402" ry="191" fill="#0e9e90" opacity="0.62"/><ellipse cx="507" cy="279" rx="307" ry="430" fill="#7fe6e0" opacity="0.46"/><ellipse cx="470" cy="837" rx="368" ry="339" fill="#04262c" opacity="0.41"/></g>
<g filter="url(#b28)"><circle cx="1089" cy="482" r="152" fill="none" stroke="#7fe6e0" stroke-width="33.5" opacity="0.11"/><circle cx="1093" cy="61" r="118" fill="none" stroke="#ffd9a0" stroke-width="25.9" opacity="0.16"/><circle cx="121" cy="792" r="74" fill="#ffd9a0" opacity="0.23"/><circle cx="747" cy="15" r="112" fill="none" stroke="#ffd9a0" stroke-width="24.5" opacity="0.26"/><circle cx="120" cy="349" r="150" fill="#0e9e90" opacity="0.10"/><circle cx="640" cy="225" r="156" fill="none" stroke="#ffd9a0" stroke-width="34.3" opacity="0.10"/><circle cx="442" cy="563" r="158" fill="none" stroke="#ffffff" stroke-width="34.9" opacity="0.20"/><circle cx="1130" cy="99" r="80" fill="#7fe6e0" opacity="0.30"/><circle cx="95" cy="807" r="86" fill="none" stroke="#ffd9a0" stroke-width="18.9" opacity="0.16"/></g>
<g filter="url(#b10)"><circle cx="396" cy="307" r="66" fill="none" stroke="#7fe6e0" stroke-width="14.5" opacity="0.20"/><circle cx="1101" cy="511" r="30" fill="#ffffff" opacity="0.18"/><circle cx="323" cy="499" r="56" fill="#7fe6e0" opacity="0.32"/><circle cx="1006" cy="316" r="38" fill="none" stroke="#ffd9a0" stroke-width="8.4" opacity="0.30"/><circle cx="75" cy="614" r="47" fill="none" stroke="#ffffff" stroke-width="10.3" opacity="0.37"/><circle cx="775" cy="641" r="39" fill="#0e9e90" opacity="0.20"/><circle cx="114" cy="233" r="83" fill="#0e9e90" opacity="0.27"/><circle cx="594" cy="747" r="57" fill="#0e9e90" opacity="0.25"/><circle cx="172" cy="479" r="80" fill="#ffffff" opacity="0.38"/><circle cx="818" cy="689" r="60" fill="#ffd9a0" opacity="0.31"/><circle cx="133" cy="670" r="79" fill="#ffd9a0" opacity="0.16"/></g>
<g filter="url(#b3)"><circle cx="395" cy="709" r="16" fill="#ffffff" opacity="0.37"/><circle cx="1131" cy="89" r="16" fill="#0e9e90" opacity="0.55"/><circle cx="996" cy="898" r="15" fill="#7fe6e0" opacity="0.53"/><circle cx="815" cy="196" r="19" fill="none" stroke="#ffd9a0" stroke-width="4.2" opacity="0.53"/><circle cx="176" cy="630" r="12" fill="#ffffff" opacity="0.39"/><circle cx="1098" cy="131" r="14" fill="#7fe6e0" opacity="0.42"/><circle cx="412" cy="155" r="14" fill="#0e9e90" opacity="0.61"/><circle cx="135" cy="173" r="14" fill="none" stroke="#ffffff" stroke-width="3.0" opacity="0.63"/><circle cx="1135" cy="694" r="9" fill="#7fe6e0" opacity="0.63"/></g>
<path d="M-120 810 L432 -90 L744 -90 L192 990 Z" fill="#ffd9a0" opacity="0.15" filter="url(#b28)"/>
<g><ellipse cx="290" cy="319" rx="504" ry="408" fill="#ffd9a0" opacity="0.26" filter="url(#b60)"/><circle cx="290" cy="319" r="60" fill="#ffffff" opacity="0.5" filter="url(#b10)"/><circle cx="431" cy="378" r="38" fill="none" stroke="#7fe6e0" stroke-width="7.2" opacity="0.15" filter="url(#b3)"/><circle cx="572" cy="438" r="53" fill="none" stroke="#7fe6e0" stroke-width="7.2" opacity="0.12" filter="url(#b3)"/><circle cx="713" cy="498" r="67" fill="none" stroke="#7fe6e0" stroke-width="7.2" opacity="0.09" filter="url(#b3)"/><circle cx="854" cy="557" r="82" fill="none" stroke="#7fe6e0" stroke-width="7.2" opacity="0.06" filter="url(#b3)"/></g>
<rect width="1200" height="900" fill="url(#vig109)"/>
<g transform="translate(600 450) scale(6.12)" fill="none" stroke="#000000" stroke-width="3.2" stroke-linecap="round" stroke-linejoin="round" opacity="0.14">
<path d="M0 44 C -40 14, -40 -30, 0 -46 C 40 -30, 40 14, 0 44 Z M0 44 L0 -30"/>
</g>
<g transform="translate(600 450) scale(6.00)" fill="none" stroke="#ffffff" stroke-width="3.2" stroke-linecap="round" stroke-linejoin="round" opacity="0.9">
<path d="M0 44 C -40 14, -40 -30, 0 -46 C 40 -30, 40 14, 0 44 Z M0 44 L0 -30"/>
</g>
<rect width="1200" height="900" filter="url(#grain)" opacity="0.06" style="mix-blend-mode:overlay"/>
</svg>