<svg xmlns="http://www.w3.org/2000/svg" viewBox="0 0 1200 900" width="1200" height="900">
<defs>
<filter id="grain" x="0" y="0" width="100%" height="100%">
<feTurbulence type="fractalNoise" baseFrequency="0.9" numOctaves="4" stitchTiles="stitch"/>
<feColorMatrix type="saturate" values="0"/>
</filter>
<filter id="b60"><feGaussianBlur stdDeviation="60"/></filter>
<filter id="b28"><feGaussianBlur stdDeviation="28"/></filter>
<filter id="b10"><feGaussianBlur stdDeviation="10"/></filter>
<filter id="b3"><feGaussianBlur stdDeviation="3"/></filter></defs>
<defs>
<linearGradient id="base101" x1="0" y1="0" x2="0.7" y2="1">
<stop offset="0%" stop-color="#7fe6e0" stop-opacity="0.9"/>
<stop offset="45%" stop-color="#0e9e90"/>
<stop offset="100%" stop-color="#04262c"/>
</linearGradient>
<radialGradient id="vig101" cx="0.5" cy="0.44" r="0.8">
<stop offset="52%" stop-color="#000000" stop-opacity="0"/>
<stop offset="100%" stop-color="#000000" stop-opacity="0.5"/>
</radialGradient>
</defs>
<rect width="1200" height="900" fill="url(#base101)"/>
<g filter="url(#b60)"><ellipse cx="330" cy="396" rx="614" ry="314" fill="#0e9e90" opacity="0.57"/><ellipse cx="169" cy="791" rx="286" ry="488" fill="#7fe6e0" opacity="0.44"/><ellipse cx="748" cy="813" rx="329" ry="175" fill="#04262c" opacity="0.31"/><ellipse cx="708" cy="159" rx="562" ry="363" fill="#ffd9a0" opacity="0.37"/><ellipse cx="390" cy="349" rx="254" ry="344" fill="#0e9e90" opacity="0.65"/><ellipse cx="1066" cy="464" rx="251" ry="257" fill="#7fe6e0" opacity="0.48"/><ellipse cx="829" cy="621" rx="487" ry="392" fill="#04262c" opacity="0.33"/></g>
<g filter="url(#b28)"><circle cx="864" cy="327" r="83" fill="#7fe6e0" opacity="0.29"/><circle cx="95" cy="67" r="63" fill="#7fe6e0" opacity="0.17"/><circle cx="675" cy="2" r="94" fill="#0e9e90" opacity="0.18"/><circle cx="1081" cy="450" r="77" fill="#0e9e90" opacity="0.23"/><circle cx="124" cy="131" r="93" fill="none" stroke="#ffd9a0" stroke-width="20.5" opacity="0.25"/><circle cx="414" cy="796" r="176" fill="none" stroke="#0e9e90" stroke-width="38.6" opacity="0.28"/><circle cx="296" cy="87" r="120" fill="none" stroke="#0e9e90" stroke-width="26.3" opacity="0.23"/><circle cx="1014" cy="430" r="125" fill="#7fe6e0" opacity="0.29"/><circle cx="1194" cy="3" r="142" fill="#ffd9a0" opacity="0.27"/></g>
<g filter="url(#b10)"><circle cx="894" cy="880" r="45" fill="none" stroke="#0e9e90" stroke-width="9.8" opacity="0.31"/><circle cx="170" cy="706" r="49" fill="#ffffff" opacity="0.14"/><circle cx="403" cy="567" r="64" fill="none" stroke="#ffffff" stroke-width="14.2" opacity="0.33"/><circle cx="621" cy="667" r="34" fill="#ffd9a0" opacity="0.17"/><circle cx="557" cy="283" r="51" fill="#ffffff" opacity="0.28"/><circle cx="179" cy="449" r="81" fill="#ffffff" opacity="0.26"/><circle cx="245" cy="814" r="66" fill="none" stroke="#0e9e90" stroke-width="14.5" opacity="0.31"/><circle cx="1124" cy="207" r="47" fill="#7fe6e0" opacity="0.18"/><circle cx="378" cy="396" r="49" fill="#ffd9a0" opacity="0.33"/><circle cx="848" cy="276" r="67" fill="#7fe6e0" opacity="0.23"/><circle cx="588" cy="842" r="77" fill="none" stroke="#ffffff" stroke-width="16.9" opacity="0.22"/></g>
<g filter="url(#b3)"><circle cx="921" cy="730" r="9" fill="none" stroke="#7fe6e0" stroke-width="2.0" opacity="0.38"/><circle cx="726" cy="750" r="12" fill="#ffd9a0" opacity="0.55"/><circle cx="355" cy="530" r="11" fill="#7fe6e0" opacity="0.61"/><circle cx="567" cy="389" r="14" fill="none" stroke="#7fe6e0" stroke-width="3.2" opacity="0.53"/><circle cx="235" cy="673" r="24" fill="none" stroke="#ffffff" stroke-width="5.4" opacity="0.38"/><circle cx="989" cy="738" r="24" fill="none" stroke="#ffd9a0" stroke-width="5.3" opacity="0.54"/><circle cx="322" cy="703" r="18" fill="none" stroke="#7fe6e0" stroke-width="4.0" opacity="0.33"/><circle cx="612" cy="101" r="8" fill="#7fe6e0" opacity="0.46"/><circle cx="971" cy="676" r="16" fill="none" stroke="#0e9e90" stroke-width="3.5" opacity="0.37"/></g>
<path d="M-120 810 L432 -90 L744 -90 L192 990 Z" fill="#ffd9a0" opacity="0.15" filter="url(#b28)"/>
<g><ellipse cx="512" cy="135" rx="504" ry="408" fill="#ffd9a0" opacity="0.26" filter="url(#b60)"/><circle cx="512" cy="135" r="60" fill="#ffffff" opacity="0.5" filter="url(#b10)"/><circle cx="552" cy="278" r="38" fill="none" stroke="#7fe6e0" stroke-width="7.2" opacity="0.15" filter="url(#b3)"/><circle cx="592" cy="421" r="53" fill="none" stroke="#7fe6e0" stroke-width="7.2" opacity="0.12" filter="url(#b3)"/><circle cx="632" cy="565" r="67" fill="none" stroke="#7fe6e0" stroke-width="7.2" opacity="0.09" filter="url(#b3)"/><circle cx="672" cy="708" r="82" fill="none" stroke="#7fe6e0" stroke-width="7.2" opacity="0.06" filter="url(#b3)"/></g>
<rect width="1200" height="900" fill="url(#vig101)"/>
<g transform="translate(600 450) scale(6.12)" fill="none" stroke="#000000" stroke-width="3.2" stroke-linecap="round" stroke-linejoin="round" opacity="0.14">
<path d="M-26 -40 L26 -40 L18 44 L-18 44 Z M-23 -8 L23 -8"/>
</g>
<g transform="translate(600 450) scale(6.00)" fill="none" stroke="#ffffff" stroke-width="3.2" stroke-linecap="round" stroke-linejoin="round" opacity="0.9">
<path d="M-26 -40 L26 -40 L18 44 L-18 44 Z M-23 -8 L23 -8"/>
</g>
<rect width="1200" height="900" filter="url(#grain)" opacity="0.06" style="mix-blend-mode:overlay"/>
</svg>